#tb 0: 1/25
#media_type 0: video
#codec_id 0: rawvideo
#dimensions 0: 720x576
#sar 0: 16/15
0,          9,          9,        1,   622080, 0xff496bf5
0,         10,         10,        1,   622080, 0xc0e4912c
0,         11,         11,        1,   622080, 0xa8aedd7e
0,         12,         12,        1,   622080, 0x2054deb9
0,         13,         13,        1,   622080, 0x1005d0ca
0,         14,         14,        1,   622080, 0x60f085dc
0,         15,         15,        1,   622080, 0x4da0d261
0,         16,         16,        1,   622080, 0x968e940e
0,         17,         17,        1,   622080, 0x86687b04
0,         18,         18,        1,   622080, 0xd63bc93d
0,         19,         19,        1,   622080, 0x7ab0a6e6
0,         20,         20,        1,   622080, 0x883dab85
0,         21,         21,        1,   622080, 0x9f6ef6b5
0,         22,         22,        1,   622080, 0xceccee25
0,         23,         23,        1,   622080, 0x2aa823a5
0,         24,         24,        1,   622080, 0xb20d0f48
0,         25,         25,        1,   622080, 0x571560b9
0,         26,         26,        1,   622080, 0xc0904764
0,         27,         27,        1,   622080, 0xdb5b89c3
0,         28,         28,        1,   622080, 0x707aadc5
0,         29,         29,        1,   622080, 0x6383ef1b
0,         30,         30,        1,   622080, 0xf9e56040
0,         31,         31,        1,   622080, 0x86ce7ff0
0,         32,         32,        1,   622080, 0x0c76bd84
0,         33,         33,        1,   622080, 0xd7192781
0,         34,         34,        1,   622080, 0x83b70cdc
0,         35,         35,        1,   622080, 0xaae87453
0,         36,         36,        1,   622080, 0xfafa92e2
0,         37,         37,        1,   622080, 0x28323354
0,         38,         38,        1,   622080, 0x34d47484
